<?xml version="1.0" encoding="utf-8"?>
<svg viewBox="57.9055 127.2325 348.3969 312.7266" width="348.3969" height="312.7266" xmlns="http://www.w3.org/2000/svg">
    <path d="M 379.107 290.239 C 379.125 372.935 312.084 439.975 229.388 439.959 C 146.703 439.959 79.669 372.925 79.669 290.239 C 79.655 274.156 82.234 258.174 87.306 242.911 C 107.724 181.782 164.938 140.552 229.388 140.52 C 284.618 140.501 335.368 170.898 361.417 219.597 C 364.585 225.493 367.352 231.6 369.692 237.87 C 370.017 238.744 370.332 239.618 370.64 240.5 L 370.64 240.508 C 372.013 244.385 373.223 248.332 374.268 252.353 C 377.492 264.723 379.119 277.456 379.107 290.239 Z" fill="#3f3d56" style=""/>
    <path d="M 213.008 189.225 C 199.374 181.852 183.099 181.188 168.908 187.422 C 162.743 190.105 156.249 194.919 154.192 203.611 C 162.511 198.701 173.28 206.459 175.422 218.904 L 174.922 219.041 C 173.792 227.662 176.316 237.045 181.202 242.389 C 181.843 236.839 185.493 233.059 189.083 230.7 C 192.674 228.339 196.646 226.625 199.386 222.568 C 202.636 217.759 203.46 210.729 204.751 204.317 C 206.042 197.905 208.491 191.013 213.008 189.225 Z" fill="#fff" style=""/>
    <path d="M 166.441 262.574 C 164.137 266.035 161.059 268.206 158.298 270.909 C 155.544 273.62 152.924 277.28 152.376 281.98 C 152.026 284.991 152.566 288.051 152.492 291.097 C 152.417 294.14 151.401 297.567 149.331 298.325 C 146.063 299.505 143.566 293.433 140.206 293.009 C 137.537 292.677 135.132 296.877 135.907 300.52 C 136.679 304.164 140.314 305.777 142.403 303.397 C 144.291 306.567 142.959 312.315 140.124 313.287 C 139.824 315.283 139.525 317.272 139.233 319.269 C 132.064 314.253 124.819 309.154 118.721 301.809 C 111.941 293.71 107.735 283.769 106.643 273.264 C 105.854 264.82 107.027 255.163 103.15 248.667 C 100.048 243.469 94.724 242.321 89.934 242.644 C 89.061 242.703 88.178 242.803 87.306 242.911 C 90.131 234.425 93.72 226.213 98.027 218.374 C 99.002 217.956 99.908 217.392 100.714 216.702 C 105.172 212.917 107.152 205.257 110.769 199.958 C 111.004 199.617 111.243 199.285 111.493 198.961 C 115.195 194.128 120.152 191.64 124.944 189.328 C 135.548 184.181 146.461 178.965 157.656 179.681 L 154.471 179.988 C 150.753 190.402 147.032 200.816 143.309 211.229 C 142.744 212.827 142.171 214.427 141.595 216.029 C 139.482 221.95 137.304 228.256 137.627 234.886 C 137.819 238.812 139.182 243.003 141.778 244.351 C 144.199 245.597 146.844 244.069 149.181 242.554 C 150.171 241.922 151.152 241.289 152.141 240.649 C 155.693 238.363 159.628 236.016 163.379 237.547 C 166.814 238.945 169.352 243.61 169.835 248.642 C 170.277 253.535 169.083 258.434 166.441 262.574 Z" fill="#fff" style=""/>
    <path d="M 187.564 333.671 C 177.192 327.285 166.817 320.899 156.444 314.512 L 156.621 314.058 C 150.171 316.514 147.494 327.98 148.56 337.354 C 149.627 346.73 153.24 355.111 155.065 364.245 C 157.527 376.748 156.597 389.679 152.374 401.699 C 166.014 386.394 178.085 369.761 188.407 352.048 C 189.849 349.816 190.948 347.379 191.667 344.821 C 192.325 342.1 192.224 338.827 190.904 336.644 C 190.055 335.391 188.907 334.369 187.564 333.671 Z" fill="#fff" style=""/>
    <path d="M 146.624 217.477 C 145.523 219.953 145.1 223.256 146.099 225.818 C 147.12 228.435 149.279 229.619 151.264 230.604 L 156.997 233.445 C 158.903 234.389 160.959 235.344 162.903 234.566 C 165.247 233.629 166.873 229.953 166.453 226.541 C 166.005 222.909 163.716 220.411 161.599 218.284 C 158.637 215.308 155.675 212.333 152.713 209.356 L 151.043 211.4 C 149.237 213.161 147.744 215.215 146.624 217.477 Z" fill="#fff" style=""/>
    <path d="M 348.382 256.295 C 350.962 256.902 353.539 257.509 356.118 258.116 C 355.669 266.824 351.352 274.885 345.562 277.805 C 343.151 279.019 340.464 279.468 338.469 281.739 C 336.662 283.802 335.749 287.012 334.909 290.081 C 333.436 295.438 331.962 300.794 330.491 306.15 C 328.911 311.924 326.882 318.337 322.772 320.417 C 319.246 322.203 315.212 320.016 312.498 316.349 C 309.789 312.68 308.133 307.749 306.527 302.94 C 306.627 308.18 304.191 313.321 300.737 315.142 C 297.277 316.964 293.069 315.316 290.758 311.25 C 289.094 308.331 288.403 304.479 286.773 301.518 C 285.142 298.556 281.725 296.86 279.943 299.637 C 278.772 301.485 278.921 304.313 278.339 306.659 C 277.433 310.301 274.687 312.588 271.967 312.788 C 269.257 312.988 266.612 311.425 264.339 309.304 C 259.657 304.912 256.206 297.941 254.867 290.198 C 254.275 286.746 254.109 282.986 255.133 279.75 C 256.157 276.515 258.626 274.02 261.08 274.636 C 262.693 271.225 259.508 266.7 256.639 267.1 C 253.76 267.499 251.506 270.584 249.145 272.955 C 246.789 275.326 243.497 277.047 241.126 274.694 C 241.142 276.882 239.362 278.329 237.824 278.144 C 236.293 277.971 234.929 276.74 233.523 275.865 C 228.092 272.481 221.196 274.727 217.337 281.132 C 219.749 270.867 223.284 259.089 230.695 256.677 C 233.722 255.687 237.024 256.504 239.887 254.789 C 244.951 251.753 245.975 240.283 241.6 235.55 C 242.156 240.026 242.049 245.25 239.687 248.309 C 237.324 251.37 232.367 249.373 232.667 244.849 C 231.984 247.968 228.59 248.442 227.027 246.047 C 225.455 243.652 225.588 239.733 226.702 236.872 C 227.817 234.011 229.714 231.958 231.552 229.985 C 235.502 225.753 239.511 221.467 244.086 218.806 C 248.669 216.146 253.959 215.247 258.55 217.892 C 260.971 219.289 263.101 221.619 265.572 222.849 C 268.043 224.088 271.177 223.93 272.816 221.036 C 274.654 217.809 273.789 213.019 274.47 208.983 C 275.694 201.855 282.822 198.52 286.773 203.227 C 283.819 202.47 280.768 205.964 280.403 210.199 C 280.027 214.432 282.165 218.707 285.026 219.988 C 289.834 222.118 294.541 216.761 298.176 211.804 C 301.97 206.613 305.769 201.425 309.572 196.241 C 310.179 195.358 310.861 194.528 311.61 193.762 C 314.081 191.353 317.998 191.273 320.568 193.58 C 324.411 196.715 326.215 203.144 329.368 207.569 C 333.942 213.998 340.788 215.563 347.159 216.81 C 351.908 217.734 356.661 218.663 361.417 219.597 C 364.585 225.493 367.352 231.6 369.692 237.87 C 361.642 241.289 354.213 247.686 348.382 256.295 Z" fill="#fff" style=""/>
    <path d="M 363.737 356.374 C 360.173 363.61 356.029 370.544 351.344 377.11 C 348.348 375.829 345.13 378.116 342.327 380.262 C 339.399 382.508 335.88 384.696 332.877 382.649 C 329.808 380.553 328.819 374.689 329.792 370.039 C 330.765 365.398 333.194 361.705 335.548 358.196 C 338.044 354.468 340.713 350.602 344.181 349.153 C 347.659 347.706 352.125 349.752 353.14 354.693 L 355.603 354.61 C 354.222 352.715 354.945 348.787 356.801 348.097 C 358.938 347.291 360.794 350.226 362.056 352.822 C 362.623 353.995 363.197 355.176 363.737 356.374 Z" fill="#fff" style=""/>
    <path d="M 269.442 321.239 C 264.151 321.572 259.959 315.059 257.174 308.649 C 254.387 302.24 251.846 294.911 247.072 291.648 C 244.342 289.785 241.232 289.53 238.273 288.626 C 235.313 287.723 232.215 285.854 230.802 282.048 L 227.444 280.691 C 223.011 283.183 218.519 285.722 214.698 289.779 C 210.414 294.331 207.746 300.166 207.104 306.382 C 206.464 313.102 208.831 320.594 213.256 323.118 C 216.751 325.113 220.822 323.855 224.363 325.682 C 228.789 327.963 231.415 334.59 232.408 341.133 C 233.403 347.675 233.151 354.476 233.862 361.093 C 234.575 367.711 236.536 374.595 240.593 377.987 C 245.67 382.231 253.121 378.705 255.399 370.98 C 256.516 367.191 256.478 362.915 257.315 358.982 C 258.786 352.056 262.757 346.917 265.909 341.233 C 269.059 335.552 271.537 327.835 269.442 321.239 Z" fill="#fff" style=""/>
    <path d="M 217.149 253.175 C 217.643 253.629 218.103 254.118 218.528 254.638 C 219.421 256.18 219.389 258.091 218.443 259.602 C 219.732 259.528 220.931 258.919 221.75 257.92 C 222.715 256.82 223.566 255.624 224.285 254.35 C 224.825 253.47 225.399 252.278 225.033 251.234 C 224.783 250.521 224.192 250.216 223.777 249.679 C 223.12 248.829 222.957 247.479 222.617 246.311 C 221.883 243.789 220.124 241.936 218.214 241.67 L 218.48 241.722 C 217.681 241.995 217.126 243.261 217.302 244.401 C 217.463 245.44 218.129 246.3 218.062 247.36 C 217.968 248.882 216.446 249.595 216.353 251.12 C 216.337 251.881 216.624 252.621 217.149 253.175 Z" fill="#fff" style=""/>
    <path d="M 208.082 227.308 C 208.09 227.304 208.098 227.304 208.106 227.302 C 208.269 227.153 208.421 226.993 208.558 226.822 L 208.082 227.308 Z" fill="#e6e6e6" style=""/>
    <path d="M 209.669 234.452 C 210.84 233.701 211.493 231.618 211.106 229.877 C 210.722 228.146 209.362 226.983 208.106 227.302 C 207.366 228.053 206.292 228.369 205.263 228.14 C 204.488 227.94 203.635 227.425 202.962 228.009 C 202.577 228.446 202.307 228.973 202.178 229.539 C 201.929 230.304 201.68 231.069 201.431 231.834 C 201.313 232.107 201.282 232.411 201.343 232.703 C 201.44 232.94 201.655 233.111 201.908 233.151 C 203.402 233.591 204.897 234.032 206.39 234.473 C 207.481 234.794 208.655 235.104 209.669 234.452 Z" fill="#fff" style=""/>
    <path d="M 322.493 333.099 C 321.802 331.968 321.111 330.837 320.42 329.707 C 319.741 328.397 318.814 327.232 317.689 326.277 C 316.648 325.405 315.092 325.561 314.245 326.622 L 314.328 327.268 C 315.903 329.243 317.568 331.439 317.969 334.372 C 318.126 335.526 318.071 336.723 318.208 337.885 C 318.347 339.044 318.74 340.248 319.489 340.749 C 320.577 341.475 321.854 340.405 322.627 339.096 C 323.319 338.023 323.631 336.748 323.51 335.477 C 323.338 334.622 322.992 333.814 322.493 333.099 Z" fill="#fff" style=""/>
    <path d="M 353.238 289.904 C 353.439 288.594 353.638 287.284 353.837 285.972 C 354.162 284.533 354.202 283.046 353.956 281.591 C 353.722 280.253 352.431 279.37 351.099 279.637 L 350.746 280.185 C 350.679 282.709 350.54 285.463 348.958 287.963 C 348.334 288.948 347.522 289.828 346.88 290.805 C 346.238 291.782 345.763 292.957 346.013 293.822 C 346.378 295.079 348.045 295.081 349.48 294.58 C 350.701 294.204 351.759 293.427 352.486 292.376 C 352.904 291.612 353.16 290.771 353.238 289.904 Z" fill="#e6e6e6" style=""/>
    <path d="M 333.33 334.571 C 333.668 333.601 333.181 332.488 333.078 331.413 C 333.027 330.027 333.395 328.659 334.132 327.483 C 334.863 326.376 335.418 325.16 335.775 323.879 C 335.926 323.296 335.898 322.682 335.697 322.115 C 335.468 321.601 334.915 321.367 334.596 321.773 L 335.276 322.213 C 334.359 322.049 333.415 322.094 332.518 322.346 C 331.478 322.744 330.698 323.622 330.426 324.702 C 330.314 325.532 330.13 326.35 329.879 327.148 C 329.471 327.982 328.687 328.259 328.193 328.992 C 327.51 330.308 327.536 331.882 328.263 333.176 C 328.883 334.218 329.868 334.992 331.026 335.35 C 331.857 335.647 332.95 335.662 333.33 334.571 Z" fill="#fff" style=""/>
    <path d="M 352.629 340.393 C 352.928 341.175 353.33 341.912 353.825 342.588 C 354.749 343.52 356.003 342.947 357.126 342.722 C 359.197 342.394 361.282 343.23 362.554 344.898 C 361.671 340.5 358.709 336.804 354.607 334.984 C 351.964 333.907 349.182 333.803 346.433 333.706 L 345.96 333.828 C 347.167 337.348 350.967 337.27 352.629 340.393 Z" fill="#fff" style=""/>
    <path d="M 270.889 347.596 L 270.897 347.61 C 270.942 347.521 270.989 347.433 271.036 347.345 L 270.889 347.596 Z" fill="#e6e6e6" style=""/>
    <path d="M 267.962 353.262 C 267.324 354.421 266.775 355.627 266.32 356.87 C 265.717 358.884 265.319 360.951 265.128 363.044 C 264.981 364.233 264.934 365.754 265.681 366.333 C 266.123 366.627 266.715 366.547 267.064 366.145 C 267.477 365.707 267.816 365.204 268.067 364.655 C 269.531 362.131 270.669 359.431 271.451 356.621 C 272.165 353.66 272.158 350.174 270.897 347.61 C 269.919 349.494 268.941 351.378 267.962 353.262 Z" fill="#fff" style=""/>
    <path d="M 239.717 202.283 C 240.669 203.211 242.081 203.488 243.311 202.983 C 244.557 202.438 245.7 201.684 246.691 200.75 C 247.511 200.143 248.206 199.386 248.739 198.515 C 249.334 197.465 249.483 196.224 249.158 195.062 C 248.696 193.708 247.522 193.255 246.485 192.947 C 244.826 192.455 243.167 191.964 241.508 191.471 L 242.709 190.39 C 241.475 189.728 240.109 190.957 239.337 192.479 C 238.841 193.473 238.497 194.536 238.313 195.631 C 237.9 198.02 238.304 200.865 239.717 202.283 Z" fill="#e6e6e6" style=""/>
    <path d="M 269.005 192.451 C 269.974 193.52 271.608 193.653 272.74 192.754 C 273.688 192.042 274.288 190.96 274.392 189.779 C 274.509 188.474 273.865 187.024 272.942 186.911 L 273.154 185.689 C 271.378 185.37 269.193 185.304 268.242 187.461 C 267.59 189.141 267.88 191.041 269.005 192.451 Z" fill="#e6e6e6" style=""/>
    <path d="M 265.093 127.485 C 243.423 125.04 223.875 140.625 221.43 162.296 C 218.986 183.964 230.402 231.021 251.216 250.499 C 261.016 213.18 295.359 191.042 299.903 171.147 C 304.758 149.887 286.763 129.929 265.093 127.485 Z" fill="#5b8ce8" style=""/>
    <circle id="a2705e7e-530b-43fb-b0c6-4087ca2c8018" data-name="b262ea8c-1946-46c9-a449-3a1996c39394" cx="257.895" cy="162.781" r="12.877" fill="#fff" style=""/>
    <circle id="bb575e01-1284-49d3-8651-037e5b7ffa75" data-name="bcc29a3a-8123-4529-80aa-6f70df2823cf" cx="244.356" cy="260.633" r="8.434" fill="#5b8ce8" style=""/>
    <path d="M 268.55 153.555 C 277.046 158.66 276.829 171.048 268.161 175.856 C 264.137 178.086 259.228 178.001 255.286 175.63 C 264.959 177.784 273.336 168.655 270.363 159.2 C 269.419 156.195 267.405 153.641 264.704 152.021 C 266.06 152.322 267.358 152.84 268.55 153.555 Z" fill="#231f20" opacity="0.2" style="isolation: isolate;"/>
    <path d="M 299.953 171.19 C 295.409 191.084 261.068 213.221 251.267 250.542 C 249.308 248.693 247.491 246.7 245.827 244.583 C 256.84 209.502 289.044 188.187 293.435 168.964 C 297.364 151.758 286.327 135.406 270.488 128.499 C 289.661 133.319 304.403 151.706 299.953 171.19 Z" fill="#231f20" opacity="0.2" style="isolation: isolate;"/>
    <path d="M 144.418 177.729 C 128.144 175.894 113.465 187.598 111.629 203.872 C 109.795 220.144 118.367 255.482 133.998 270.11 C 141.358 242.084 167.148 225.46 170.56 210.52 C 174.206 194.554 160.691 179.566 144.418 177.729 Z" fill="#5b8ce8" style=""/>
    <circle id="b2d5ab8a-e71c-4a1a-aadf-98f8ab95825b" data-name="b262ea8c-1946-46c9-a449-3a1996c39394" cx="139.015" cy="204.237" r="9.671" fill="#fff" style=""/>
    <circle id="bac33ac8-32b5-423c-9bc5-6c03ceb8d8dc" data-name="bcc29a3a-8123-4529-80aa-6f70df2823cf" cx="128.846" cy="277.721" r="6.334" fill="#5b8ce8" style=""/>
    <path d="M 147.016 197.308 C 153.396 201.143 153.233 210.446 146.722 214.056 C 143.701 215.73 140.014 215.665 137.054 213.885 C 144.319 215.503 150.609 208.646 148.377 201.546 C 147.667 199.29 146.156 197.373 144.127 196.156 C 145.145 196.382 146.12 196.771 147.016 197.308 Z" fill="#231f20" opacity="0.2" style="isolation: isolate;"/>
    <path d="M 170.598 210.55 C 167.185 225.492 141.396 242.116 134.037 270.142 C 132.566 268.753 131.201 267.258 129.951 265.666 C 138.221 239.323 162.406 223.315 165.702 208.878 C 168.654 195.959 160.365 183.68 148.47 178.492 C 162.868 182.112 173.939 195.92 170.598 210.55 Z" fill="#231f20" opacity="0.2" style="isolation: isolate;"/>
    <path d="M 385.222 171.92 C 373.497 167.267 360.218 172.998 355.565 184.724 C 350.91 196.447 350.139 224.447 358.801 238.48 C 369.937 219.137 392.467 211.993 398.024 201.577 C 403.962 190.447 396.947 176.575 385.222 171.92 Z" fill="#5b8ce8" style=""/>
    <circle id="f50692ea-d13f-4759-b5e2-05248e17533e" data-name="b262ea8c-1946-46c9-a449-3a1996c39394" cx="375.847" cy="190.53" r="7.45" fill="#fff" style=""/>
    <circle id="aec6a1c4-a00c-42b6-a49d-0158b63ca54a" data-name="bcc29a3a-8123-4529-80aa-6f70df2823cf" cx="353.433" cy="243.096" r="4.879" fill="#5b8ce8" style=""/>
    <path d="M 383.194 186.998 C 387.156 191.142 385.149 198.022 379.579 199.383 C 376.998 200.013 374.279 199.222 372.439 197.308 C 377.511 199.977 383.574 196.153 383.349 190.423 C 383.277 188.603 382.542 186.873 381.281 185.557 C 381.991 185.931 382.638 186.417 383.194 186.998 Z" fill="#231f20" opacity="0.2" style="isolation: isolate;"/>
    <path d="M 398.047 201.609 C 392.49 212.024 369.96 219.167 358.823 238.511 C 358.011 237.182 357.299 235.795 356.692 234.358 C 368.165 216.451 389.376 209.44 394.745 199.376 C 399.551 190.369 395.871 179.566 388.08 173.306 C 398.051 178.909 403.487 191.41 398.047 201.609 Z" fill="#231f20" opacity="0.2" style="isolation: isolate;"/>
    <path d="M 367.33 389.636 C 361.769 389.636 355.677 389.306 349.05 388.646 C 314.771 385.227 270.37 373.335 224.024 355.165 C 177.68 336.996 134.927 314.716 103.647 292.431 C 88.406 281.575 76.711 271.3 68.883 261.89 C 60.597 251.928 56.973 243.242 58.109 236.081 C 60.325 222.125 79.952 219.072 96.026 218.968 L 96.031 220.997 C 73.957 221.14 60.935 226.67 59.363 236.572 C 57.36 249.181 73.694 268.866 104.178 290.583 C 135.392 312.817 178.065 335.054 224.338 353.195 C 270.608 371.337 314.928 383.207 349.131 386.621 C 382.534 389.954 402.842 384.633 404.844 372.023 C 406.507 361.553 395.544 346.13 373.976 328.594 L 374.57 326.791 C 390.242 339.533 408.432 357.811 406.099 372.514 C 404.96 379.679 399.164 384.669 388.869 387.345 C 383 388.872 375.792 389.636 367.33 389.636 Z" fill="#5b8ce8" style=""/>
</svg>