<?xml version="1.0" encoding="utf-8"?>
<!-- Generator: Adobe Illustrator 24.0.0, SVG Export Plug-In . SVG Version: 6.00 Build 0)  -->
<svg version="1.1" id="Layer_1" xmlns="http://www.w3.org/2000/svg" xmlns:xlink="http://www.w3.org/1999/xlink" x="0px" y="0px"
	 viewBox="0 0 141.7 141.7" style="enable-background:new 0 0 141.7 141.7;" xml:space="preserve">
<style type="text/css">
	.st0{fill:url(#SVGID_1_);}
	.st1{fill:url(#SVGID_2_);}
	.st2{fill:url(#SVGID_3_);}
	.st3{fill:#FFFFFF;}
	.st4{font-family:'Montserrat-Bold';}
	.st5{font-size:12px;}
	.st6{fill:url(#SVGID_4_);}
	.st7{fill:url(#SVGID_5_);}
</style>
<radialGradient id="SVGID_1_" cx="-562.7628" cy="728.8704" r="3.4232" gradientTransform="matrix(0 -4.1149 -15.9752 0 11714.71 -2209.4126)" gradientUnits="userSpaceOnUse">
	<stop  offset="0" style="stop-color:#020203"/>
	<stop  offset="0.838" style="stop-color:#FFFFFF;stop-opacity:0"/>
</radialGradient>
<path class="st0" d="M126.4,106.3c0,4.8-19.6,14.2-55.6,14.2s-55.6-9.4-55.6-14.2c0-4.8,19.6-14.2,55.6-14.2
	C106.8,92.1,126.4,101.5,126.4,106.3z"/>
<linearGradient id="SVGID_2_" gradientUnits="userSpaceOnUse" x1="98.5733" y1="72.865" x2="42.0266" y2="72.865" gradientTransform="matrix(1 0 0 -1 0 144)">
	<stop  offset="0" style="stop-color:#FFFFFF"/>
	<stop  offset="1" style="stop-color:#E1E5E8"/>
</linearGradient>
<path class="st1" d="M100.2,31.3v72.2c0,2.9-6.3,5.4-15.5,6.7c-4.1,0.6-8.8,0.9-13.9,0.9c-3.7,0-7.2-0.2-10.5-0.5
	c-11-1.1-18.9-3.9-18.9-7.1V31.3c0,4.2,13.1,7.6,29.4,7.6C87.1,38.8,100.2,35.4,100.2,31.3z"/>
<linearGradient id="SVGID_3_" gradientUnits="userSpaceOnUse" x1="-802.5973" y1="66.6859" x2="-802.5973" y2="43.1232" gradientTransform="matrix(0 -1 -1 0 127.7647 -719.8073)">
	<stop  offset="0" style="stop-color:#FFFFFF"/>
	<stop  offset="1" style="stop-color:#E1E5E8"/>
</linearGradient>
<path class="st2" d="M72.6,54.6c3.4,0,6.4,1.4,8.6,3.6s3.6,5.2,3.6,8.6v43.4c-4.1,0.6-8.8,0.9-13.9,0.9c-3.7,0-7.2-0.2-10.5-0.5
	V66.7C60.4,60,65.8,54.6,72.6,54.6z"/>
<g>
	<text transform="matrix(5.644397e-17 -0.9218 1 6.123234e-17 76.0039 102.207)" class="st3 st4 st5">100%</text>
	<g>
		
			<linearGradient id="SVGID_4_" gradientUnits="userSpaceOnUse" x1="31.148" y1="59.4872" x2="31.148" y2="52.3027" gradientTransform="matrix(6.123234e-17 -1 1 6.123234e-17 16.4538 125.6462)">
			<stop  offset="2.563900e-04" style="stop-color:#E87AAE"/>
			<stop  offset="1" style="stop-color:#E72581"/>
		</linearGradient>
		<path class="st6" d="M77.1,94.5c0,2.1-1.7,4.3-5.3,4.3s-5.3-2.2-5.3-4.3c0-2.2,1.7-4.3,5.3-4.3S77.1,92.4,77.1,94.5z M70.1,94.5
			c0,0.3,0.7,0.5,1.7,0.5s1.7-0.2,1.7-0.5c0-0.4-0.9-0.5-1.7-0.5C71,94,70.1,94.1,70.1,94.5z"/>
		
			<linearGradient id="SVGID_5_" gradientUnits="userSpaceOnUse" x1="42.298" y1="92.7872" x2="42.298" y2="85.6028" gradientTransform="matrix(6.123234e-17 -1 -1 -6.123234e-17 160.4538 125.6462)">
			<stop  offset="2.563900e-04" style="stop-color:#E87AAE"/>
			<stop  offset="1" style="stop-color:#E72581"/>
		</linearGradient>
		<path class="st7" d="M77.1,80.7c0,1.4-0.8,2.4-2.2,2.8l1.6,1c0.3,0.2,0.5,0.5,0.5,0.8v1.3c0,0.4-0.2,0.7-0.5,0.9s-0.7,0.2-1,0
			L73.2,86c0,1.7-1.4,2.9-3.3,2.9c-2,0-3.3-1.2-3.3-2.9c0-1.4,0.8-2.4,2.2-2.8l-1.6-1c-0.3-0.2-0.5-0.5-0.5-0.8v-1.3
			c0-0.4,0.2-0.7,0.5-0.9s0.7-0.2,1,0l2.3,1.5c0-1.7,1.4-2.9,3.3-2.9C75.7,77.8,77.1,79,77.1,80.7z"/>
	</g>
</g>
</svg>
