<?xml version="1.0" encoding="utf-8"?>
<!-- Generator: Adobe Illustrator 25.0.0, SVG Export Plug-In . SVG Version: 6.00 Build 0)  -->
<svg version="1.1" id="Layer_1" xmlns="http://www.w3.org/2000/svg" xmlns:xlink="http://www.w3.org/1999/xlink" x="0px" y="0px"
	 viewBox="0 0 32.63 52.59" style="enable-background:new 0 0 32.63 52.59;" xml:space="preserve">
<style type="text/css">
	.st0{fill:url(#SVGID_1_);}
	.st1{fill:url(#SVGID_2_);}
	.st2{fill:url(#SVGID_3_);}
	.st3{fill:url(#SVGID_4_);}
</style>
<linearGradient id="SVGID_1_" gradientUnits="userSpaceOnUse" x1="25.0302" y1="-217.669" x2="25.0302" y2="-181.9129" gradientTransform="matrix(0 -1 1 0 215.6805 74.9004)">
	<stop  offset="0" style="stop-color:#FFFFFF"/>
	<stop  offset="1" style="stop-color:#D6DADD"/>
</linearGradient>
<ellipse class="st0" cx="16.32" cy="49.87" rx="17.95" ry="4.65"/>
<linearGradient id="SVGID_2_" gradientUnits="userSpaceOnUse" x1="28.664" y1="-199.3645" x2="21.9005" y2="-199.3645" gradientTransform="matrix(0 -1 1 0 215.6805 74.9004)">
	<stop  offset="0" style="stop-color:#FFFFFF"/>
	<stop  offset="1" style="stop-color:#D6DADD"/>
</linearGradient>
<ellipse class="st1" cx="16.32" cy="49.87" rx="17.03" ry="3.73"/>
<linearGradient id="SVGID_3_" gradientUnits="userSpaceOnUse" x1="70.6906" y1="-186.1188" x2="70.6906" y2="-213.2768" gradientTransform="matrix(0 -1 1 0 215.6805 74.9004)">
	<stop  offset="0" style="stop-color:#E72581"/>
	<stop  offset="0.9997" style="stop-color:#E87AAE"/>
</linearGradient>
<path class="st2" d="M32.63,4.21c-0.15,1.02-5.31,4.21-16.32,4.21C5.28,8.42,0.13,5.22,0,4.2C0.13,3.2,5.28,0,16.32,0
	C27.32,0,32.48,3.19,32.63,4.21z"/>
<linearGradient id="SVGID_4_" gradientUnits="userSpaceOnUse" x1="46.5021" y1="-183.5502" x2="46.5021" y2="-215.5555" gradientTransform="matrix(0 -1 1 0 215.6805 74.9004)">
	<stop  offset="0.0819" style="stop-color:#E87AAE"/>
	<stop  offset="0.2493" style="stop-color:#EDA2C7"/>
	<stop  offset="0.3531" style="stop-color:#EC8BB7"/>
	<stop  offset="0.5331" style="stop-color:#EA669E"/>
	<stop  offset="0.6991" style="stop-color:#E8458D"/>
	<stop  offset="0.8445" style="stop-color:#E72F84"/>
	<stop  offset="0.9533" style="stop-color:#E72581"/>
</linearGradient>
<path class="st3" d="M16.32,8.42C5.28,8.42,0.13,5.22,0,4.2v44.08c0,2.38,7.31,4.31,16.32,4.31c9.01,0,16.32-1.93,16.32-4.31
	c0,0-0.02-44.2,0-44.07C32.48,5.23,27.32,8.42,16.32,8.42z"/>
</svg>
