<?xml version="1.0" encoding="utf-8"?>
<!-- Generator: Adobe Illustrator 24.0.0, SVG Export Plug-In . SVG Version: 6.00 Build 0)  -->
<svg version="1.1" id="Layer_1" xmlns="http://www.w3.org/2000/svg" xmlns:xlink="http://www.w3.org/1999/xlink" x="0px" y="0px"
	 viewBox="0 0 141.7 141.7" style="enable-background:new 0 0 141.7 141.7;" xml:space="preserve">
<style type="text/css">
	.st0{fill:url(#SVGID_1_);}
	.st1{fill:url(#SVGID_2_);}
	.st2{fill:url(#SVGID_3_);}
	.st3{fill:url(#SVGID_4_);}
	.st4{fill:url(#SVGID_5_);}
	.st5{fill:url(#SVGID_6_);}
	.st6{fill:url(#SVGID_7_);}
	.st7{fill:url(#SVGID_8_);}
	.st8{fill:#FFFFFF;}
	.st9{font-family:'Montserrat-Bold';}
	.st10{font-size:12px;}
	.st11{fill:url(#SVGID_9_);}
	.st12{fill:url(#SVGID_10_);}
	.st13{fill:url(#SVGID_11_);}
	.st14{fill:url(#SVGID_12_);}
</style>
<linearGradient id="SVGID_1_" gradientUnits="userSpaceOnUse" x1="-1688.0073" y1="955.3493" x2="-1688.0073" y2="1009.5604" gradientTransform="matrix(0 -1 1 0 -912.2353 -1615.8074)">
	<stop  offset="0" style="stop-color:#FFFFFF"/>
	<stop  offset="1" style="stop-color:#D6DADD"/>
</linearGradient>
<ellipse class="st0" cx="70.9" cy="72.2" rx="27.2" ry="7"/>
<linearGradient id="SVGID_2_" gradientUnits="userSpaceOnUse" x1="-1682.3873" y1="983.1353" x2="-1693.2845" y2="983.1353" gradientTransform="matrix(0 -1 1 0 -912.2353 -1615.8074)">
	<stop  offset="0" style="stop-color:#FFFFFF"/>
	<stop  offset="1" style="stop-color:#D6DADD"/>
</linearGradient>
<path class="st1" d="M96.7,72.2c0,1.9-9.1,5.7-25.8,5.7s-25.8-3.7-25.8-5.7s9.1-5.7,25.8-5.7C87.6,66.6,96.7,70.3,96.7,72.2z"/>
<radialGradient id="SVGID_3_" cx="-1357.9432" cy="23.538" r="3.1715" gradientTransform="matrix(0 -1.6762 6.4388 0 -80.6563 -2204.2344)" gradientUnits="userSpaceOnUse">
	<stop  offset="0" style="stop-color:#020203"/>
	<stop  offset="1" style="stop-color:#FFFFFF"/>
</radialGradient>
<path class="st2" d="M91.6,71.9c0,1.8-7.3,5.4-20.7,5.4s-20.7-3.5-20.7-5.4s7.3-5.4,20.7-5.4C84.3,66.6,91.6,70.1,91.6,71.9z"/>
<linearGradient id="SVGID_4_" gradientUnits="userSpaceOnUse" x1="96.0811" y1="756.7" x2="44.6303" y2="756.7" gradientTransform="matrix(1 0 0 1 0 -656)">
	<stop  offset="0" style="stop-color:#FFFFFF"/>
	<stop  offset="1" style="stop-color:#E1E5E8"/>
</linearGradient>
<path class="st3" d="M98.1,72.2v49.9c0,2-3.2,3.8-8.4,5.1c-3.3,0.8-7.4,1.4-11.9,1.7c-0.3,0-0.6,0-1,0.1c-0.5,0-0.9,0.1-1.4,0.1
	c-1.5,0.1-3,0.1-4.6,0.1s-3.1,0-4.6-0.1c-0.5,0-0.9,0-1.4-0.1c-12.2-0.7-21.3-3.5-21.3-6.9V72.2c0,3.4,9.1,6.2,21.3,6.9
	c0.5,0,0.9,0.1,1.4,0.1c1.5,0.1,3,0.1,4.6,0.1s3.1,0,4.6-0.1c0.5,0,0.9,0,1.4-0.1c0.3,0,0.6,0,1-0.1c4.6-0.3,8.6-0.9,11.9-1.7
	C94.9,76,98.1,74.2,98.1,72.2z"/>
<linearGradient id="SVGID_5_" gradientUnits="userSpaceOnUse" x1="76.82" y1="760.15" x2="64.4915" y2="760.15" gradientTransform="matrix(1 0 0 1 0 -656)">
	<stop  offset="2.714800e-04" style="stop-color:#C2C5C7"/>
	<stop  offset="1" style="stop-color:#FFFFFF"/>
</linearGradient>
<path class="st4" d="M75.4,79.2c-1.5,0.1-3,0.1-4.6,0.1s-3.1,0-4.6-0.1c-0.5,0-0.9,0-1.4-0.1V129c0.5,0,0.9,0.1,1.4,0.1
	c1.5,0.1,3,0.1,4.6,0.1s3.1,0,4.6-0.1c0.5,0,0.9,0,1.4-0.1V79.1C76.4,79.1,75.9,79.2,75.4,79.2z"/>
<linearGradient id="SVGID_6_" gradientUnits="userSpaceOnUse" x1="75.5405" y1="760.2" x2="66.2263" y2="760.2" gradientTransform="matrix(1 0 0 1 0 -656)">
	<stop  offset="2.563900e-04" style="stop-color:#E87AAE"/>
	<stop  offset="1" style="stop-color:#E72581"/>
</linearGradient>
<path class="st5" d="M75.4,79.2v49.9c-1.5,0.1-3,0.1-4.6,0.1s-3.1,0-4.6-0.1V79.2c1.5,0.1,3,0.1,4.6,0.1
	C72.4,79.3,73.9,79.2,75.4,79.2z"/>
<g>
	
		<linearGradient id="SVGID_7_" gradientUnits="userSpaceOnUse" x1="-1831.1418" y1="1246.8856" x2="-1831.1418" y2="1288.4558" gradientTransform="matrix(0 -1 1 0 -1197.3337 -1779.0432)">
		<stop  offset="0" style="stop-color:#FFFFFF"/>
		<stop  offset="1" style="stop-color:#D6DADD"/>
	</linearGradient>
	<path class="st6" d="M92,35.8v34.6c0,2.1-1.7,3.9-3.9,3.9H54.7c-2.1,0-3.9-1.7-3.9-3.9V35.8c0-3.3,2.7-5.9,5.9-5.9H86
		C89.3,29.8,92,32.5,92,35.8z"/>
	
		<linearGradient id="SVGID_8_" gradientUnits="userSpaceOnUse" x1="-1811.7317" y1="1268.7336" x2="-1850.9143" y2="1268.7336" gradientTransform="matrix(0 -1 1 0 -1197.3337 -1779.0432)">
		<stop  offset="0" style="stop-color:#FFFFFF"/>
		<stop  offset="1" style="stop-color:#D6DADD"/>
	</linearGradient>
	<path class="st7" d="M90.6,60.8c0,6.7-5.4,12.1-12.1,12.1H64.3c-6.7,0-12.1-5.4-12.1-12.1V50.4c0-10.6,8.6-19.2,19.2-19.2
		s19.2,8.6,19.2,19.2C90.6,50.4,90.6,60.8,90.6,60.8z"/>
</g>
<g>
	<text transform="matrix(5.644397e-17 -0.9218 1 6.123234e-17 74.5539 69.3555)" class="st8 st9 st10">100%</text>
	<g>
		
			<linearGradient id="SVGID_9_" gradientUnits="userSpaceOnUse" x1="55.05" y1="94.2372" x2="55.05" y2="87.0527" gradientTransform="matrix(6.123234e-17 -1 -1 -6.123234e-17 160.4538 125.6462)">
			<stop  offset="2.563900e-04" style="stop-color:#E87AAE"/>
			<stop  offset="1" style="stop-color:#E72581"/>
		</linearGradient>
		<path class="st11" d="M75.6,70.7c0,0.6-0.4,1-1,1h-5.8v0.5c0,0.6-0.4,1-1,1h-1.6c-0.6,0-1-0.4-1-1v-3.3c0-0.6,0.4-1,1-1h8.4
			c0.6,0,1,0.4,1,1V70.7z"/>
		
			<linearGradient id="SVGID_10_" gradientUnits="userSpaceOnUse" x1="62.9" y1="58.0372" x2="62.9" y2="50.8527" gradientTransform="matrix(6.123234e-17 -1 1 6.123234e-17 16.4538 125.6462)">
			<stop  offset="2.563900e-04" style="stop-color:#E87AAE"/>
			<stop  offset="1" style="stop-color:#E72581"/>
		</linearGradient>
		<path class="st12" d="M75.7,62.7c0,2.1-1.7,4.3-5.3,4.3s-5.3-2.2-5.3-4.3s1.7-4.3,5.3-4.3S75.7,60.5,75.7,62.7z M68.7,62.7
			c0,0.3,0.7,0.5,1.7,0.5s1.7-0.2,1.7-0.5c0-0.4-0.9-0.5-1.7-0.5C69.6,62.2,68.7,62.3,68.7,62.7z"/>
		
			<linearGradient id="SVGID_11_" gradientUnits="userSpaceOnUse" x1="73" y1="58.0372" x2="73" y2="50.8527" gradientTransform="matrix(6.123234e-17 -1 1 6.123234e-17 16.4538 125.6462)">
			<stop  offset="2.563900e-04" style="stop-color:#E87AAE"/>
			<stop  offset="1" style="stop-color:#E72581"/>
		</linearGradient>
		<path class="st13" d="M75.7,52.6c0,2.1-1.7,4.3-5.3,4.3s-5.3-2.2-5.3-4.3c0-2.2,1.7-4.3,5.3-4.3S75.7,50.5,75.7,52.6z M68.7,52.6
			c0,0.3,0.7,0.5,1.7,0.5s1.7-0.2,1.7-0.5c0-0.4-0.9-0.5-1.7-0.5C69.6,52.1,68.7,52.2,68.7,52.6z"/>
		
			<linearGradient id="SVGID_12_" gradientUnits="userSpaceOnUse" x1="84.15" y1="94.2372" x2="84.15" y2="87.0527" gradientTransform="matrix(6.123234e-17 -1 -1 -6.123234e-17 160.4538 125.6462)">
			<stop  offset="2.563900e-04" style="stop-color:#E87AAE"/>
			<stop  offset="1" style="stop-color:#E72581"/>
		</linearGradient>
		<path class="st14" d="M75.7,38.8c0,1.4-0.8,2.4-2.2,2.8l1.6,1c0.3,0.2,0.5,0.5,0.5,0.8v1.3c0,0.4-0.2,0.7-0.5,0.9
			c-0.3,0.2-0.7,0.2-1,0l-2.3-1.5c0,1.7-1.4,2.9-3.3,2.9c-2,0-3.3-1.2-3.3-2.9c0-1.4,0.8-2.4,2.2-2.8l-1.6-1
			c-0.3-0.2-0.5-0.5-0.5-0.8v-1.3c0-0.4,0.2-0.7,0.5-0.9c0.3-0.2,0.7-0.2,1,0l2.3,1.5c0-1.7,1.4-2.9,3.3-2.9
			C74.3,35.9,75.7,37.1,75.7,38.8z"/>
	</g>
</g>
</svg>
